<?xml version="1.0" encoding="UTF-8" standalone="no"?>
<svg id="svg2" height="314.78528" width="317" xmlns="http://www.w3.org/2000/svg">
   <g id="g3238" transform="matrix(1.304146 0 0 -1.304146 -1136.7056 1102.4797)">
      <path id="path182" d="m931.03569 644.86813l2.48794 3.43309-15.15901 14.33872-11.50287-6.17694-1.38391-.21629-10.23628 1.90384-.99115.18555-.48437.87654-6.19009 11.18859-.49635.89954.40551.94728 3.57168 8.33302.86243.98613 12.26942 7.31481-5.05319 19.90759-12.87595-.15656-1.26794.40532-7.80246 5.67499-.82571.60111-.0541 1.00701-.70955 13.30059-.058 1.09031.86185.68268 8.51374 6.73901 1.29074.45692 12.12157.15463 4.17434 20.56456-9.52403 6.82677-.68809.83653-4.61097 9.93166-.48997 1.05456.62295.97414 6.91606 10.81807.56767.88813 1.04799.0889 10.28614.88697 1.21808-.28161 10.50359-5.95776 15.14026 14.68237-6.62169 9.70205-.37323 1.33462.70896 10.64043.0734 1.08703.93858.57753 11.52703 7.09349.87557.53965.96313-.35661 9.57719-3.54694 1.04373-.82802 6.63928-10.11567 20.01061 4.61657.31448 13.07928.49751 1.30833 6.38453 7.62541.66006.78899 1.01319-.0271 13.47801-.35448 1.0503-.0271.6152-.84214 6.2071-8.512.4055-1.14404.6251-11.71335 19.5639-4.62141 7.333 10.68103 1.0602.81101 9.7546 3.37009 1.0213.35216.8839-.61696 10.6404-7.44894.8278-.57985.075-1.01068.709-9.57718-.3147-1.25093-6.7521-10.99337 14.3864-14.3853 12.2662 6.53143 1.1852.23928 9.7528-.8864 1.1228-.10244.543-.98304 6.5614-11.88208.4953-.89742-.4043-.94998-3.546-8.33554-.7128-.89432-10.7473-7.70002 4.4938-20.45594 13.2764-.63281 1.2266-.47219 7.2705-5.85107.8389-.67707-.042-1.05533-.5319-12.76964-.043-1.0273-.8355-.60382-8.3352-6.02947-1.1933-.40647-12.6655-.31293-4.1635-21.1276 10.8993-6.15936.8866-.96815 3.9008-8.51374.4252-.92699-.4586-.9034-5.675-11.17255-.4734-.92988-1.0174-.19715-10.1085-1.95062-1.3677.19947-12.6112 6.54399-14.2869-14.89441 3.2402-4.05276 2.7698-3.46151-4.4266.0193-124.05516.4432-4.14206.0193 2.42764 3.34824z" fill="#9c1116" stroke="#9c1116" stroke-miterlimit="2.61312604" stroke-width=".447644"/>
      <path id="path186" d="m938.04646 647.32379l-1.1539-1.59169 115.48814-.41304-1.629 2.03701-1.1582 1.44692 1.2908 1.34564 16.6706 17.37964 1.0936 1.14018 1.4-.72714 13.3603-6.93249 8.3732 1.61585 4.7444 9.33984-3.1873 6.95278-11.6403 6.57782-1.3385.75825.2958 1.49582 4.7874 24.29609.3299 1.67325 1.7001.0425 13.7104.33902 6.9621 5.03464.4443 10.68489-5.8843 4.73757-14.2183.67726-1.6213.0773-.35 1.59652-5.1431 23.41066-.2986 1.35607 1.1352.81373 11.4054 8.17066 2.9066 6.83314-5.5233 10.00125-8.0052.72713-13.0978-6.97366-1.3889-.7395-1.1047 1.10384-16.6704 16.67184-1.1802 1.17903.8732 1.42179 7.2628 11.82236-.5862 7.90664-8.9283 6.2502-8.0733-2.78927-7.7574-11.29798-.8247-1.20107-1.4037.3309-22.5231 5.32071-1.5561.3682-.083 1.58763-.6761 12.66778-5.221 7.15979-11.41296.30037-5.24493-6.2647-.33709-13.98269-.0406-1.64252-1.60908-.37149-23.05463-5.31896-1.43552-.33129-.80966 1.23315-7.06625 10.76723-7.95205 2.94544-9.71345-5.97748-.58952-8.83536 7.20579-10.55675 1.00256-1.4705-1.27644-1.23933-17.55727-17.02516-1.13902-1.10442-1.37965.78241-11.2891 6.40309-8.61289-.7424-5.72602-8.95694 3.88074-8.3597 10.19299-7.30552 1.11602-.79981-.27118-1.33752-4.78859-23.58713-.34134-1.68427-1.71326-.0232-13.10442-.16816-7.08692-5.61101.59725-11.2027 6.4085-4.66083 13.84468.17009 1.66668.0213.41363-1.62667 5.85204-23.05637.38579-1.52037-1.35492-.80657-13.03598-7.77173-2.8923-6.75003 5.20706-9.41444 8.5176-1.58434 12.20139 6.55269 1.35221.72694 1.1079-1.04973 17.6168-16.66449 1.34893-1.27664-1.09147-1.50606z" fill="#fff" stroke="#9c1116" stroke-miterlimit="2.61312604" stroke-width=".447644"/>
      <path id="path196" d="m930.50473 737.66847l26.35049 18.02921.46327-15.71755 25.42628 16.87358v-15.949l26.35163 14.33088.2307-13.86878 25.8895 14.33087.4621-14.33087 24.5021 13.86878 2.3117-40.68292-5.3161-.23027-125.51603-.23183-6.70315-.4621.69237 24.27066z" fill="#9c1116" fill-rule="evenodd" stroke="#9c1116" stroke-miterlimit="2.61312604" stroke-width=".84444141"/>
      <path id="path198" d="m994.46257 795.68237h.002c19.15513 0 36.54833-7.91038 49.15393-20.67004 12.5924-12.74755 20.4007-30.33539 20.4019-49.70554v-.004-.002c0-19.3725-7.8095-36.96268-20.4042-49.71023-12.6033-12.75732-29.9953-20.6677-49.14928-20.66887h-.004-.002c-19.15631 0-36.54946 7.91038-49.15392 20.67004-12.59351 12.74755-20.40186 30.33578-20.40303 49.70554v.004.00078c.001 19.37251 7.80952 36.96269 20.4042 49.71023 12.60446 12.75772 29.99644 20.66771 49.1504 20.66888h.004zm.002-4.24097h-.002-.004c-17.98465-.001-34.30934-7.42287-46.13504-19.39322-11.83773-11.98208-19.17733-28.52179-19.17733-46.74491v-.00078-.004c.001-18.21961 7.3396-34.75815 19.17625-46.73983 11.82687-11.97191 28.15273-19.39362 46.13855-19.39362h.002.004c17.9834 0 34.3085 7.42171 46.1338 19.39244 11.8379 11.98169 19.1775 28.5214 19.1775 46.74452v.002.004c0 18.2196-7.3396 34.75932-19.1751 46.74022-11.8277 11.97152-28.1528 19.39322-46.13855 19.3944" fill="#9c1116"/>
      <path id="path200" d="m933.04666 735.12537h6.93537v-5.08541h-6.93537z" fill="#fff" fill-rule="evenodd"/>
      <path id="path202" d="m944.37351 735.12537h6.93419v-5.08541h-6.93419z" fill="#fff" fill-rule="evenodd"/>
      <path id="path204" d="m959.63014 735.12537h6.93381v-5.08541h-6.93381z" fill="#fff" fill-rule="evenodd"/>
      <path id="path206" d="m971.41792 735.12537h6.93497v-5.08541h-6.93497z" fill="#fff" fill-rule="evenodd"/>
      <path id="path208" d="m984.36289 735.12537h6.93498v-5.08541h-6.93498z" fill="#fff" fill-rule="evenodd"/>
      <path id="path210" d="m996.61394 735.12537h6.93496v-5.08541h-6.93496z" fill="#fff" fill-rule="evenodd"/>
      <path id="path212" d="m1009.3271 735.12537h6.935v-5.08541h-6.935z" fill="#fff" fill-rule="evenodd"/>
      <path id="path214" d="m1022.2717 735.12537h6.9349v-5.08541h-6.9349z" fill="#fff" fill-rule="evenodd"/>
      <path id="path216" d="m1034.9848 735.12537h6.935v-5.08541h-6.935z" fill="#fff" fill-rule="evenodd"/>
      <path id="path218" d="m1047.6991 735.12537h6.9338v-5.08541h-6.9338z" fill="#fff" fill-rule="evenodd"/>
      <path id="path222" d="m1017.822 788.98975c0 0-24.6871-22.51841 17.1914-9.52144" fill="none" stroke="#9c1116" stroke-miterlimit="2.61312604" stroke-width="8.29581833"/>
      <path id="path226" d="m1012.8955 774.40611v-33.63165" fill="none" stroke="#9c1116" stroke-miterlimit="2.61312604" stroke-width="12.29505539"/>
      <path id="path228" d="m932.3453 765.88532l-1.37847-2.59196-3.2292.39563-2.50674-4.71636 2.16309-2.39845-1.34328-2.52746-9.35415 10.86906 1.3386 2.51886zm-7.00026-1.9039l-5.24179.70175 3.53063-3.92079zm7.96433 2.9012l-10.38467 8.40923 1.65213 2.03995 10.37725-1.364-6.93497 5.61514 1.57785 1.94808 10.38507-8.40884-1.7057-2.10563-10.16222 1.29872 6.77351-5.4834zm8.62973 10.45348l-8.58868 10.23651 2.01024 1.68771 9.9261-3.31873-5.73595 6.83528 1.92033 1.61108 8.58984-10.23533-2.07592-1.74205-9.72632 3.21396 5.60068-6.67578zm20.97342 14.38444l-2.56773-1.42383-2.49345 2.09-4.67101-2.58884.50862-3.1905-2.50322-1.38747-1.92619 14.21046 2.49462 1.38278zm-6.90839 2.21548l-4.01384 3.44306.82568-5.21169zm9.44523 13.1252l2.60526.69706 1.87263-6.98932c.29711-1.10833.52308-1.82063.67399-2.13221.25372-.49846.63489-.85109 1.13686-1.05712.50784-.20955 1.12397-.21502 1.85074-.0195.74045.19821 1.25767.49768 1.55361.90191.2936.40111.42027.83467.37687 1.29325-.0399.46327-.1982 1.20255-.47304 2.22448l-1.91289 7.13983 2.60408.69823 1.81751-6.77899c.41557-1.55127.63958-2.6639.66929-3.34102.0313-.67829-.0829-1.28425-.34325-1.82845-.26037-.53989-.67594-1.02858-1.23695-1.45862-.56413-.43082-1.35853-.78228-2.38046-1.05594-1.23226-.33035-2.20298-.43981-2.91762-.32487-.71387.11415-1.31436.35028-1.80539.7037-.49103.35576-.86321.7682-1.1138 1.23578-.36905.69275-.74553 1.76198-1.13257 3.20731l-1.84487 6.88493zm16.65152-9.4249l-.93201 13.33005 2.61855.18296 6.07842-8.51986-.62161 8.90104 2.50127.17514.93201-13.33045-2.70299-.18843-5.98068 8.31814.60831-8.69267zm13.37463.62825l.233 13.36015 2.69713-.0465-.23379-13.36016-2.69634.0465zm8.60509-.80574l-2.3836 13.9888 2.8836-.50862 1.6091-10.32643 4.9404 9.17157 2.8191-.49767-7.0327-12.32728zm8.8545-1.66777l4.3508 12.63456 9.3655-3.22491-.7361-2.13886-6.8162 2.34724-.9644-2.80034 6.3423-2.1846-.7315-2.12635-6.3431 2.18421-1.1837-3.43993 7.0569-2.42894-.7334-2.13026zm11.8003-4.14011l6.4772 11.68808 4.9693-2.75499c1.2487-.69158 2.0966-1.30106 2.5454-1.82415.45-.52308.6983-1.1482.7413-1.87301.042-.72677-.1298-1.43165-.5118-2.12323-.4867-.8765-1.147-1.45939-1.9782-1.74635-.8299-.28265-1.803-.21619-2.9102.20486.3456-.5829.5861-1.14352.7202-1.68341.134-.54068.2306-1.41952.2893-2.64084l.1653-3.07165-2.8214 1.56339-.296 3.49114c-.102 1.24437-.1994 2.04542-.2916 2.40587-.092.36006-.2393.65132-.4398.8808-.2029.22519-.5732.48751-1.117.78893l-.4765.26389-2.7042-4.87822zm6.1003 5.43648l1.7432-.96602c1.1338-.62864 1.8652-.97424 2.2022-1.0364.3323-.0598.6447-.0156.9363.12862.2858.14739.5298.39329.7249.74475.2181.39446.2869.76782.2115 1.1271-.076.35771-.287.67477-.6349.95312-.1775.1294-.7436.4621-1.701.99261l-1.8387 1.01958zm7.815-8.41118l2.1776-1.49029c-.4477-.7768-.6181-1.47855-.513-2.10797.1052-.62395.47-1.20216 1.0994-1.72993.6638-.55827 1.2854-.83975 1.8593-.8378.5743-.002 1.0196.18414 1.3367.56101.2029.24277.3037.50744.3025.79674 0 .29048-.1208.64584-.3713 1.06728-.1697.28813-.5974.89957-1.2788 1.83627-.8777 1.2045-1.3711 2.19399-1.4805 2.96884-.1576 1.09035.104 2.03995.7846 2.85116.4375.52113.9938.88315 1.6709 1.09074.6751.20485 1.3921.19273 2.1478-.0352.7546-.233 1.5239-.67516 2.3117-1.33546 1.2854-1.08058 2.0157-2.16975 2.1944-3.27925.1739-1.10794-.1142-2.14551-.8711-3.11505l-2.1435 1.64353c.3538.60049.4812 1.13921.3823 1.61226-.096.47539-.4363.95625-1.0184 1.44415-.5993.50393-1.1736.77798-1.7197.81317-.3515.0274-.6396-.0931-.8613-.35655-.2048-.24277-.2756-.53755-.2146-.88001.076-.43786.5172-1.19786 1.3253-2.27843.8065-1.08175 1.3429-1.9516 1.6134-2.60878.2659-.65835.3534-1.31983.2573-1.99147-.098-.66813-.418-1.32531-.9598-1.97154-.4922-.58603-1.1162-1.00043-1.8707-1.23773-.7569-.2373-1.536-.23261-2.3394.0195-.8057.24942-1.6545.74905-2.5431 1.49497-1.2936 1.08487-2.038 2.21744-2.2288 3.3977-.1915 1.18027.1251 2.40041.9508 3.6569zm7.0558-12.0114l9.4487 9.44836 1.9071-1.90742-9.4484-9.44836zm5.4103-6.17498l8.503 7.13553-2.5478 3.0353 1.7335 1.45392 6.8243-8.13283-1.7323-1.45392-2.5411 3.02865-8.5042-7.13553zm6.7743-9.91163l4.9657 2.63966 4.535 7.95456 1.4848-2.79369-3.1905-5.25938 6.1128-.23848 1.4606-2.74365-9.1548.69705-4.9501-2.63301z" fill="#9c1116" fill-rule="evenodd"/>
      <path id="path234" d="m970.73472 703.21319c1.006.87653 1.71965 1.4606 2.72714 2.33702 9.51687.79243 20.16667 8.31035 21.13302.19511 3.99261 8.9274 11.97952-.74694 21.62052-.39012.7136-.6162 1.4284-1.03824 2.1423-1.65571 3.5381-10.3548 7.0778-20.90567 10.6164-31.26174-17.7866-.57749-30.6481 11.3257-31.65198-2.43478-1.72124-.0318-3.44089-.0657-5.16203-.0976-.841 12.78057-18.61616 1.02498-31.74931 2.53213 3.44195 10.25841 6.88284 20.51671 10.32394 30.77544z" fill="none" stroke="#9c1116" stroke-miterlimit="2.61312604" stroke-width="1.24437869"/>
      <path id="path238" d="m970.73472 703.21319c1.006.87653 1.71965 1.4606 2.72714 2.33702 9.51687.79243 20.16667 8.31035 21.13302.19511 3.99261 8.9274 11.97952-.74694 21.62052-.39012.7136-.6162 1.4284-1.03824 2.1423-1.65571 3.5381-10.3548 7.0778-20.90567 10.6164-31.26174-17.7866-.57749-30.6481 11.3257-31.65198-2.43478-1.72124-.0318-3.44089-.0657-5.16203-.0976-.841 12.78057-18.61616 1.02498-31.74931 2.53213 3.44195 10.25841 6.88284 20.51671 10.32394 30.77544z" fill="none" stroke="#9c1116" stroke-miterlimit="2.61312604" stroke-width="1.24437869"/>
      <path id="path242" d="m973.51966 705.68065c9.51703.71689 20.167 7.8061 21.1333.46846 4.07261 7.44829 10.20854.25284 21.42584-.74114l9.5449-29.66649c-18.078 2.01011-24.5133 11.1173-30.77566-2.10446-8.5932 14.11046-12.65569 3.64812-31.06835 1.90925z" fill="none" stroke="#9c1116" stroke-miterlimit="2.61312604" stroke-width="1.24164271"/>
      <path id="path246" d="m994.69222 706.03778v-31.84676" fill="none" stroke="#9c1116" stroke-miterlimit="2.61312604" stroke-width="1.24437869"/>
      <path id="path250" d="m975.31141 700.87586c0 0 9.34975 3.3112 12.3685 1.85072 3.0197-1.46176 3.79877-.77919 3.79877-.77919" fill="none" stroke="#9c1116" stroke-dasharray="2.49193859 1.2406673" stroke-miterlimit="2.61312604" stroke-width="1.24437869"/>
      <path id="path254" d="m975.33706 698.68067c0 0 9.18105 3.31134 12.14558 1.84969 2.96431-1.46061 3.729-.7792 3.729-.7792" fill="none" stroke="#9c1116" stroke-dasharray="2.48614051 1.24827138" stroke-miterlimit="2.61312604" stroke-width="1.2431742"/>
      <path id="path258" d="m975.28201 696.00276c0 0 8.95511 3.31129 11.84745 1.84967 2.89142-1.4607 3.63825-.77906 3.63825-.77906" fill="none" stroke="#9c1116" stroke-dasharray="2.75560373 1.38288601" stroke-miterlimit="2.61312604" stroke-width="1.38003886"/>
      <path id="path262" d="m975.27965 693.44305c0 0 8.6734 3.31136 11.47508 1.8507 2.8003-1.46154 3.52275-.7789 3.52275-.7789" fill="none" stroke="#9c1116" stroke-dasharray="2.77760358 1.38880179" stroke-miterlimit="2.61312604" stroke-width="1.38791537"/>
      <path id="path266" d="m974.04593 690.84469c0 0 9.34975 3.31121 12.36818 1.85072 3.01885-1.46176 3.79792-.77908 3.79792-.77908" fill="none" stroke="#9c1116" stroke-dasharray="2.49193859 1.2406673" stroke-miterlimit="2.61312604" stroke-width="1.24437869"/>
      <path id="path270" d="m973.65581 688.50768c0 0 9.34964 3.3112 12.36849 1.8504 3.0196-1.46145 3.79878-.78003 3.79878-.78003" fill="none" stroke="#9c1116" stroke-dasharray="2.49193859 1.2406673" stroke-miterlimit="2.61312604" stroke-width="1.24437869"/>
      <path id="path274" d="m972.97429 685.97523c0 0 9.34975 3.31121 12.36828 1.85072 3.01992-1.46176 3.79878-.77918 3.79878-.77918" fill="none" stroke="#9c1116" stroke-dasharray="2.49193859 1.2406673" stroke-miterlimit="2.61312604" stroke-width="1.24437869"/>
      <path id="path278" d="m972.29266 683.92972c0 0 9.34965 3.31121 12.3685 1.8504 3.01875-1.46049 3.7975-.77876 3.7975-.77876" fill="none" stroke="#9c1116" stroke-dasharray="2.49193859 1.2406673" stroke-miterlimit="2.61312604" stroke-width="1.24437869"/>
      <path id="path282" d="m1014.5598 700.87586c0 0-9.3498 3.3112-12.3682 1.85072-3.01877-1.46176-3.79795-.77919-3.79795-.77919" fill="none" stroke="#9c1116" stroke-dasharray="2.49193859 1.2406673" stroke-miterlimit="2.61312604" stroke-width="1.24437869"/>
      <path id="path286" d="m1014.5857 698.68067c0 0-9.1802 3.31134-12.1449 1.84969-2.96419-1.46061-3.72981-.7792-3.72981-.7792" fill="none" stroke="#9c1116" stroke-dasharray="2.48614051 1.24827138" stroke-miterlimit="2.61312604" stroke-width="1.2431742"/>
      <path id="path290" d="m1014.5302 696.00276c0 0-8.9551 3.31129-11.8462 1.84967-2.89232-1.4607-3.63833-.77906-3.63833-.77906" fill="none" stroke="#9c1116" stroke-dasharray="2.75560373 1.38288601" stroke-miterlimit="2.61312604" stroke-width="1.38003886"/>
      <path id="path294" d="m1014.5277 693.44305c0 0-8.6737 3.31136-11.474 1.8507-2.8016-1.46154-3.52409-.7789-3.52409-.7789" fill="none" stroke="#9c1116" stroke-dasharray="2.77760358 1.38880179" stroke-miterlimit="2.61312604" stroke-width="1.38791537"/>
      <path id="path298" d="m1015.8252 690.84469c0 0-9.3484 3.31121-12.3681 1.85072-3.0189-1.46176-3.79797-.77908-3.79797-.77908" fill="none" stroke="#9c1116" stroke-dasharray="2.49193859 1.2406673" stroke-miterlimit="2.61312604" stroke-width="1.24437869"/>
      <path id="path302" d="m1016.2154 688.50768c0 0-9.3497 3.3112-12.3685 1.8504-3.0185-1.46145-3.7976-.78003-3.7976-.78003" fill="none" stroke="#9c1116" stroke-dasharray="2.49193859 1.2406673" stroke-miterlimit="2.61312604" stroke-width="1.24437869"/>
      <path id="path306" d="m1016.8971 685.97523c0 0-9.3497 3.31121-12.3685 1.85072-3.0188-1.46176-3.7978-.77918-3.7978-.77918" fill="none" stroke="#9c1116" stroke-dasharray="2.49193859 1.2406673" stroke-miterlimit="2.61312604" stroke-width="1.24437869"/>
      <path id="path310" d="m1017.5785 683.92972c0 0-9.3485 3.31121-12.3685 1.8504-3.0184-1.46049-3.7976-.77876-3.7976-.77876" fill="none" stroke="#9c1116" stroke-dasharray="2.49193859 1.2406673" stroke-miterlimit="2.61312604" stroke-width="1.24437869"/>
      <path id="path314" d="m875.48801 644.90756h233.56409 2.1215v-2.1209-34.91585-2.12089h-2.1215-233.56409-2.12147v2.12089 34.91585 2.1209z" fill="#9c1116" stroke="#9c1116" stroke-miterlimit="2.61312604" stroke-width=".447644"/>
      <path id="path318" d="m1106.9302 640.66692h-229.32148v-30.67482h229.32148z" fill="#fff" stroke="#9c1116" stroke-miterlimit="2.61312604" stroke-width=".447644"/>
      <path id="path320" d="m883.4154 616.56776v15.32974h2.8582c1.06493 0 1.76082-.0755 2.08765-.22089.52308-.23574.95312-.7424 1.29324-1.51374.34012-.77446.51097-1.76981.51097-2.99073 0-1.11067-.14856-2.03799-.44099-2.78704-.29282-.75062-.6607-1.27449-1.10051-1.57825-.43786-.30376-1.19473-.45662-2.27061-.45662h-1.16501v-5.78247zm1.77294 12.73542v-4.3477h.98322c.65914 0 1.10716.0645 1.34524.19626.23496.13175.43004.3714.57978.71699.15286.34677.22792.76821.22792 1.27096 0 .50667-.0774.93866-.23262 1.28465-.15833.35029-.35028.58173-.58055.7037-.23066.11729-.71504.17514-1.45861.17514zm6.44003-12.73542v15.32974h3.7433c.95743 0 1.64236-.13879 2.05364-.4148.40971-.27366.7467-.75217 1.00942-1.43046.26467-.68142.39563-1.49498.39563-2.44146 0-1.19902-.20055-2.16661-.60283-2.89768-.4058-.73146-.97854-1.19238-1.71782-1.37769.38-.39329.69471-.81786.94218-1.2823.25021-.46288.59033-1.2952 1.02037-2.49423l1.06845-2.99112h-2.1154l-1.29129 3.33671c-.4621 1.20333-.77798 1.96059-.94531 2.26279-.16498.30377-.34247.51097-.52738.62864-.18492.11416-.48321.17163-.89331.17163h-.36788v-6.39977zm1.77177 8.84787h1.321c.80574 0 1.31749.0497 1.53837.15051.22049.0997.39759.30259.5352.60948.13488.30729.20486.71817.20486 1.22484 0 .48868-.07.88079-.20486 1.17791-.13761.29595-.32253.49963-.55748.61066-.16537.0786-.64819.11415-1.44298.11415h-1.39411zm6.75006-1.278c0 1.82767.18726 3.33046.56843 4.5115.37687 1.18144.8722 2.06341 1.48285 2.64201.60949.57743 1.34994.86673 2.22096.86673 1.26002 0 2.28508-.68494 3.08065-2.05911.79245-1.37417 1.19004-3.33007 1.19004-5.8677 0-2.56225-.41988-4.56819-1.26002-6.01117-.7381-1.27761-1.73853-1.9125-3.00402-1.9125-1.27565 0-2.28077.63177-3.01771 1.89178-.84131 1.44142-1.26118 3.42312-1.26118 5.93846zm1.83079.10438c0-1.76316.23496-3.08417.70253-3.96614.46992-.88119 1.05047-1.32335 1.74557-1.32335.69784 0 1.27526.43903 1.73619 1.31319.46014.87454.68728 2.21627.68728 4.02947 0 1.77763-.22284 3.09081-.67047 3.94385-.44451.84914-1.02936 1.27448-1.753 1.27448-.72286 0-1.3124-.42886-1.76551-1.28542-.45428-.86008-.68259-2.18773-.68259-3.98608zm12.19905-2.038v2.58415h3.83087v-6.10695c-.38469-.64936-.93318-1.20685-1.64001-1.67481-.7084-.46757-1.41757-.69901-2.13339-.69901-.8679 0-1.63571.30337-2.29837.91403-.66499.60948-1.19238 1.5239-1.5802 2.74052-.38781 1.21702-.5829 2.64553-.5829 4.28984 0 1.68889.19704 3.13069.59072 4.32972.39212 1.19903.90191 2.09586 1.53016 2.68736.62747.59306 1.38082.88901 2.25302.88901 1.05047 0 1.89295-.38118 2.5255-1.14586.63294-.76352 1.03835-1.88084 1.2178-3.36135l-1.7573-.57508c-.13097.78893-.37257 1.39176-.72599 1.80968-.34911.41792-.77016.62825-1.26001.62825-.75453 0-1.37066-.42104-1.83862-1.26001-.46991-.83897-.70252-2.11971-.70252-3.84417 0-1.84526.25294-3.25149.76038-4.21126.43552-.83232 1.02623-1.24555 1.76629-1.24555.34677 0 .70722.11768 1.08292.34912.37218.23613.70448.55279.99965.95625v1.94612zm5.47988-5.63625v15.32974h3.7433c.95742 0 1.64236-.13879 2.05363-.4148.4101-.27366.74671-.75217 1.00942-1.43046.26506-.68142.39564-1.49498.39564-2.44146 0-1.19902-.20056-2.16661-.60284-2.89768-.40541-.73146-.97853-1.19238-1.71742-1.37769.37883-.39329.69471-.81786.94179-1.2823.25059-.46288.59071-1.2952 1.02075-2.49423l1.06807-2.99112h-2.11541l-1.2909 3.33671c-.4621 1.20333-.77798 1.96059-.9453 2.26279-.16537.30377-.34247.51097-.52778.62864-.18492.11416-.48321.17163-.89292.17163h-.36788v-6.39977zm1.77215 8.84787h1.32061c.80574 0 1.31788.0497 1.53837.15051.21932.0997.39799.30259.53521.60948.13526.30729.20485.71817.20485 1.22484 0 .48868-.0696.88079-.20485 1.17791-.13722.29595-.32253.49963-.55866.61066-.16381.0786-.64702.11415-1.44259.11415h-1.39294zm7.10777-8.84787v15.32974h6.53739v-2.59432h-4.76445v-3.39887h4.42628v-2.57985h-4.42628v-4.17256h4.92395v-2.58414zm7.75284 4.98689l1.7354.29595c.19508-1.95942.83467-2.94108 1.92072-2.94108.5352 0 .95742.19938 1.26548.60284.31002.39993.4621.89643.4621 1.48832 0 .3499-.052.64585-.1595.88862-.10751.24591-.27288.44646-.49338.60401-.21932.15599-.75022.41675-1.59583.78776-.75687.32917-1.31202.68259-1.6623 1.06728-.35342.38234-.63255.88549-.83975 1.51061-.20838.62395-.31041 1.2952-.31041 2.01219 0 .83584.13174 1.58802.39681 2.25967.26818.66734.63606 1.17479 1.10363 1.51725.46992.33895 1.04735.5098 1.73775.5098 1.03484 0 1.84292-.39916 2.42347-1.20255.5829-.79987.88979-1.94925.92224-3.44071l-1.77762-.13527c-.0798.82451-.24708 1.39841-.50745 1.72642-.25842.32605-.62864.48985-1.10599.48985-.47773 0-.84795-.14308-1.1052-.42886-.26037-.28461-.38977-.63842-.38977-1.06729 0-.41674.11728-.76664.35224-1.05281.23496-.28891.77564-.59932 1.61812-.94179.89527-.37139 1.54033-.76038 1.93792-1.16697.39798-.40658.70292-.93514.91325-1.57824.20954-.64584.31471-1.42734.31471-2.34802 0-1.33117-.28696-2.4481-.85969-3.3547-.57547-.90621-1.47425-1.35971-2.694-1.35971-2.15802 0-3.36135 1.75222-3.60295 5.25743zm8.20515 0l1.73541.29595c.19508-1.95942.83545-2.94108 1.92032-2.94108.5352 0 .95742.19938 1.26549.60284.31041.39993.46249.89643.46249 1.48832 0 .3499-.0524.64585-.1599.88862-.10751.24591-.27249.44646-.49298.60401-.21932.15599-.75023.41675-1.59467.78776-.75804.32917-1.31318.68259-1.66347 1.06728-.35224.38234-.63294.88549-.84014 1.51061-.20837.62395-.31002 1.2952-.31002 2.01219 0 .83584.13292 1.58802.39759 2.25967.26702.66734.63529 1.17479 1.10286 1.51725.46991.33895 1.04734.5098 1.73775.5098 1.03483 0 1.84291-.39916 2.42347-1.20255.5829-.79987.88979-1.94925.92302-3.44071l-1.77841-.13527c-.0801.82451-.24747 1.39841-.50784 1.72642-.25685.32605-.62825.48985-1.10598.48985-.47734 0-.84757-.14308-1.10481-.42886-.26037-.28461-.39016-.63842-.39016-1.06729 0-.41674.11767-.76664.35263-1.05281.23496-.28891.77563-.59932 1.61773-.94179.89565-.37139 1.54071-.76038 1.9383-1.16697.39799-.40658.70253-.93514.91325-1.57824.20955-.64584.31471-1.42734.31471-2.34802 0-1.33117-.28695-2.4481-.86008-3.3547-.57508-.90621-1.47269-1.35971-2.69283-1.35971-2.15879 0-3.36095 1.75222-3.60373 5.25743zm14.05604-4.98689v12.73542h-2.61503v2.59432h6.99713v-2.59432h-2.60877v-12.73542zm5.54008 0v15.32974h1.77294v-6.0319h3.48879v6.0319h1.77959v-15.32974h-1.77959v6.70353h-3.48879v-6.70353zm8.87993 0v15.32974h3.7433c.9586 0 1.64353-.13879 2.05363-.4148.41011-.27366.74788-.75217 1.0106-1.43046.26506-.68142.39446-1.49498.39446-2.44146 0-1.19902-.19938-2.16661-.60284-2.89768-.40423-.73146-.97736-1.19238-1.71781-1.37769.38039-.39329.6951-.81786.94335-1.2823.25021-.46288.58955-1.2952 1.02037-2.49423l1.06728-2.99112h-2.11541l-1.29011 3.33671c-.46288 1.20333-.77799 1.96059-.94609 2.26279-.1642.30377-.34247.51097-.52778.62864-.18491.11416-.48203.17163-.89213.17163h-.36788v-6.39977zm1.77294 8.84787h1.321c.80457 0 1.31788.0497 1.5372.15051.22049.0997.39798.30259.5352.60948.13527.30729.20486.71817.20486 1.22484 0 .48868-.0696.88079-.20486 1.17791-.13722.29595-.32253.49963-.55749.61066-.16498.0786-.64701.11415-1.44298.11415h-1.39293zm6.75005-1.278c0 1.82767.18727 3.33046.56727 4.5115.37804 1.18144.87337 2.06341 1.48285 2.64201.61066.57743 1.35111.86673 2.22096.86673 1.26119 0 2.28625-.68494 3.08065-2.05911.79362-1.37417 1.19121-3.33007 1.19121-5.8677 0-2.56225-.42105-4.56819-1.2608-6.01117-.73811-1.27761-1.73775-1.9125-3.00324-1.9125-1.27566 0-2.28078.63177-3.01888 1.89178-.84014 1.44142-1.26002 3.42312-1.26002 5.93846zm1.8308.10438c0-1.76316.23496-3.08417.70253-3.96614.46991-.88119 1.05047-1.32335 1.74557-1.32335.69823 0 1.27526.43903 1.7354 1.31319.45975.87454.68689 2.21627.68689 4.02947 0 1.77763-.22166 3.09081-.66929 3.94385-.44529.84914-1.03054 1.27448-1.753 1.27448-.72247 0-1.31319-.42886-1.76551-1.28542-.45545-.86008-.68259-2.18773-.68259-3.98608zm8.08201 7.65549h1.77293v-8.30172c0-1.29208.0196-2.13104.0657-2.52003.0774-.67829.26467-1.19903.55945-1.57004.29477-.36827.6861-.55319 1.16814-.55319.4101 0 .74592.13175 1.00512.39251.25802.26037.43551.62473.5309 1.088.0942.46093.14192 1.45627.14192 2.98448v8.47999h1.78075v-8.0523c0-2.05559-.0778-3.54392-.23066-4.45834-.15403-.91637-.49963-1.65878-1.03952-2.22643-.54068-.57156-1.25337-.85304-2.13652-.85304-.91637 0-1.63454.23613-2.1498.70683-.51527.46796-.88784 1.13139-1.12045 1.98365-.23261.85344-.34794 2.42816-.34794 4.72223v8.1774zm12.99692-9.69349v2.58415h3.8309v-6.10695c-.3843-.64936-.9332-1.20685-1.64-1.67481-.708-.46757-1.4183-.69901-2.1334-.69901-.8675 0-1.6357.30337-2.2984.91403-.6649.60948-1.1923 1.5239-1.5802 2.74052-.3878 1.21702-.5828 2.64553-.5828 4.28984 0 1.68889.197 3.13069.5907 4.32972.3921 1.19903.9019 2.09586 1.5301 2.68736.6275.59306 1.3801.88901 2.253.88901 1.0505 0 1.893-.38118 2.5255-1.14586.633-.76352 1.0384-1.88084 1.2182-3.36135l-1.7577-.57508c-.1309.78893-.3733 1.39176-.7259 1.80968-.3503.41792-.7702.62825-1.2601.62825-.7557 0-1.3706-.42104-1.8382-1.26001-.4699-.83897-.7029-2.11971-.7029-3.84417 0-1.84526.2529-3.25149.7604-4.21126.4355-.83232 1.025-1.24555 1.7655-1.24555.3479 0 .708.11768 1.0825.34912.3734.23613.7061.55279 1.0008.95625v1.94612zm5.4788-5.63625v15.32974h1.7733v-6.0319h3.4884v6.0319h1.7807v-15.32974h-1.7807v6.70353h-3.4884v-6.70353zm12.3167 0v15.32974h1.7741v-6.80675l3.5982 6.80675h2.3958l-3.3188-5.97091 3.4939-9.35883h-2.3015l-2.425 7.19534-1.4426-2.56186v-4.63348zm8.8807 0v15.32974h1.7311l3.6029-10.23651v10.23651h1.6553v-15.32974h-1.7874l-3.5463 9.99685v-9.99685zm8.5077 7.56987c0 1.82767.1873 3.33046.5673 4.5115.378 1.18144.8734 2.06341 1.4828 2.64201.6107.57743 1.3508.86673 2.221.86673 1.2608 0 2.2863-.68494 3.0807-2.05911.7936-1.37417 1.1912-3.33007 1.1912-5.8677 0-2.56225-.4199-4.56819-1.2612-6.01117-.737-1.27761-1.7374-1.9125-3.0029-1.9125-1.2756 0-2.2807.63177-3.0189 1.89178-.8401 1.44142-1.26 3.42312-1.26 5.93846zm1.8308.10438c0-1.76316.235-3.08417.7026-3.96614.4699-.88119 1.0504-1.32335 1.7455-1.32335.6979 0 1.2753.43903 1.7354 1.31319.4598.87454.6881 2.21627.6881 4.02947 0 1.77763-.2228 3.09081-.6705 3.94385-.4457.84914-1.0305 1.27448-1.753 1.27448-.7228 0-1.3136-.42886-1.7655-1.28542-.4554-.86008-.6826-2.18773-.6826-3.98608zm9.3397-7.67425l-2.0998 15.32974h1.823l1.3175-10.52894 1.6134 10.52894h2.1178l1.5458-10.7076 1.3554 10.7076h1.7878l-2.1401-15.32974h-1.8906l-1.7588 11.46094-1.7433-11.46094zm10.4214 0v15.20424h1.7734v-12.6201h4.4239v-2.58414zm7.4726 0v15.32974h6.5362v-2.59432h-4.7629v-3.39887h4.4259v-2.57985h-4.4259v-4.17256h4.9235v-2.58414zm8.1918 15.32974h3.2437c.821 0 1.4406-.13214 1.8585-.39251.4176-.26037.8023-.70253 1.1525-1.32413.3523-.61731.6283-1.42422.83-2.41253.2006-.99182.3003-2.21978.3003-3.69052 0-1.32765-.1052-2.47781-.3147-3.45869-.2108-.97853-.4778-1.753-.8003-2.3269-.3225-.57196-.7104-.99965-1.1678-1.28895-.4578-.2893-1.043-.43551-1.7631-.43551h-3.3391zm1.771-2.59432v-10.15128h1.3351c.5708 0 .9852.0755 1.2401.22832.2584.15403.4687.38586.6305.69588.1654.31041.3003.80026.4078 1.47073.1075.66696.1599 1.54932.1599 2.64514 0 1.13491-.054 2.03018-.1642 2.68736-.1106.65287-.2803 1.17048-.5129 1.54501-.233.37883-.5133.62512-.8456.74241-.2506.093-.7303.13643-1.443.13643zm11.2182-7.09917v2.58415h3.832v-6.10695c-.3855-.64936-.9332-1.20685-1.6412-1.67481-.7072-.46757-1.4175-.69901-2.1334-.69901-.8675 0-1.6345.30337-2.2972.91403-.6661.60948-1.1935 1.5239-1.5813 2.74052-.3878 1.21702-.5818 2.64553-.5818 4.28984 0 1.68889.1971 3.13069.5896 4.32972.3933 1.19903.9031 2.09586 1.5301 2.68736.6287.59306 1.3809.88901 2.2531.88901 1.0504 0 1.8941-.38118 2.5266-1.14586.633-.76352 1.0372-1.88084 1.2182-3.36135l-1.7588-.57508c-.1298.78893-.3726 1.39176-.7248 1.80968-.3503.41792-.7702.62825-1.2612.62825-.7546 0-1.3695-.42104-1.8375-1.26001-.4695-.83897-.7025-2.11971-.7025-3.84417 0-1.84526.2529-3.25149.7604-4.21126.4343-.83232 1.025-1.24555 1.7651-1.24555.3472 0 .7072.11768 1.0829.34912.3722.23613.7049.55279 1.0008.95625v1.94612zm5.4798-5.63625v15.32974h6.5374v-2.59432h-4.764v-3.39887h4.4259v-2.57985h-4.4259v-4.17256h4.9235v-2.58414z" fill="#9c1116" fill-rule="evenodd"/>
   </g>
</svg>
